<svg xmlns="http://www.w3.org/2000/svg" fill="#009688" viewBox="0 0 128 128">
  <path fill="white" d="M90 51a1 1 0 0 1 1-1l-1 1zm-3-8zm-8 16a14 14 0 0 0-3-3l2-1 3-3a8 8 0 0 0 1-4c0-2-1-3-3-4l-6-1a36 36 0 0 0-9 3 39 39 0 0 1-4 2 1 1 0 0 0 1 0 13 13 0 0 1-2 2h-1v1a2 2 0 0 0-1 0 56 56 0 0 0 1-7 5 5 0 0 1-1-1v-1l-7 10-4 5-2 2v1h-1a3 3 0 0 1-2 1h-1v1h1-3c-1 0 0 0 0 0l-1 1h-2l-3-4 2-2 4-3q2-2 2-6v-1c0-2-2-3-4-4l-8-2a48 48 0 0 0-13 4 47 47 0 0 1-4 3h1a19 19 0 0 1-3 3H8v1a1 1 0 0 1 0-1 3 3 0 0 0-2 2 4 4 0 0 1 1-1v1a2 2 0 0 0-1 0l1 1a13 13 0 0 1 2-2h1a26 26 0 0 1 7-4v1l-1 1a1 1 0 0 0 1 0l-4 8Q6 76 1 84a4 4 0 0 0 2 0h1a3 3 0 0 1 0 2 7 7 0 0 0-2 2h1a20 20 0 0 0 3-4 49 49 0 0 0 9-4 8 8 0 0 0 5-1h-1a7 7 0 0 0 3-1l7-5 6-7a7 7 0 0 0 1 0h1l1-1v1a1 1 0 0 0 1 0l-6 8-1 2-1 2h1v-1 2l1-1a2 2 0 0 0 1 0l-1 1 11-14 6-3-1 5a13 13 0 0 0-1 2 19 19 0 0 0-1 4l-1 4a43 43 0 0 0-2 8h1-1 1l1-1v-1a10 10 0 0 1 1-3 10 10 0 0 1 0-2l2-3-1 1a51 51 0 0 1-2 7v1h1l7-22a3 3 0 0 1 1-2 1 1 0 0 0 1-1h-1l2-7a2 2 0 0 1 0-1v1a10 10 0 0 1 2-1h1a20 20 0 0 1 5-3v1a1 1 0 0 0 0 1 42 42 0 0 1-3 6 167 167 0 0 1-9 19 1 1 0 0 0 0 1 3 3 0 0 0 1-1h1v1a2 2 0 0 1 0 1 5 5 0 0 0-1 2 15 15 0 0 0 2-4 38 38 0 0 0 7-2 6 6 0 0 0 4-1v-1l-1 1v-1a5 5 0 0 0 2 0l6-4c3-3 5-5 5-8zm-1 1v1-2 1zM8 52H7h1zM4 83a2 2 0 0 0-1 0l1-1v1a7 7 0 0 1 1-1l-1 1zm34-35l-1-1 1 1zm-1-3l-4-2q4 0 4 2zM18 61zm0-10v1l-1 1v-1l1-1zm-2 4zm0 1v1h-1a1 1 0 0 0 1-1zm-1 1v0zm0 2v1h-1v-1h1zM9 74v1a2 2 0 0 1 0-1zm-1 2zm0 4h1a1 1 0 0 0-1 0zm14-4a26 26 0 0 0-5 2l-4 2a48 48 0 0 0-5 3 2 2 0 0 1-1-1 1 1 0 0 1 0-1 3 3 0 0 1 2 0 13 13 0 0 1 2 0v-1h-1a13 13 0 0 1 3-1h1l-2 1h1v-1l10-5v1l-1 1zm-8 2a3 3 0 0 0 2 0 7 7 0 0 0-2 1v-1zm13-10l-4 4a41 41 0 0 1-5 3l-9 4 6-14a35 35 0 0 0 9-2h1a6 6 0 0 1 4 1c0 3-1 4-2 4zm-8-4h1-1zm9-2h1v1a1 1 0 0 1-1-1zm2-7a19 19 0 0 1-4 2l-7 3a1 1 0 0 0-1 0 4 4 0 0 1 1-3l1-2 3-8 3-1h3c3 0 4 0 4 2v-1h1a2 2 0 0 1 1 1 2 2 0 0 1-1 2v-1 1l-3 4-1 1zm2 5a1 1 0 0 0-1 0v-1l1 1zm2 3zm0 1zm1 1h1-1zm1 1a6 6 0 0 0-1 0l1-1h1l-1 1zm2-1h-1 1zm3-3v-1h1v1h-1zm4 22zm2-21a7 7 0 0 1-1 0h-1l2-1h1a1 1 0 0 0-1 1zm1-1h2a9 9 0 0 0-2 0zm1-2a1 1 0 0 0-1 0l3-1-2 1zm3-4c0 2-1 2-2 3h-1a49 49 0 0 1 3-5 5 5 0 0 1 0 2zm6-5zm-3 24v-1 1a4 4 0 0 1 1-1l-1 1zm26-27l-1-1 1 1zm-1-2l-3-1 3 1zM66 58h-1 1zm-1-7h1l-1 1v-1zm-1 2v1-1zm0 1v1a1 1 0 0 0 0-1zm0 1l-1 1 1-1zm-1 1v1-1zm-4 12v1a1 1 0 0 1 0-1zm-1 1v1-1zm0 3h1v1a1 1 0 0 0-1 0v-1zm11-3a22 22 0 0 0-4 2l-3 2a35 35 0 0 0-4 1 1 1 0 0 1-1 0 1 1 0 0 1 1-1 2 2 0 0 1 1 0 11 11 0 0 1 2 0h-1a10 10 0 0 1 2-1h-1l1 1v-1l8-4-1 1zm-7 2a3 3 0 0 0 2 0 6 6 0 0 0-1 1h-1v-1zm10-7l-3 2a30 30 0 0 1-3 2l-7 3 5-10a27 27 0 0 0 6-2h1a4 4 0 0 1 3 1v1l-2 2zm-6-4h1-1zm7-1h1a1 1 0 0 1-1 0zm1-6a14 14 0 0 1-2 2 36 36 0 0 0-6 2 3 3 0 0 1 1-2v-2l3-6h4c2-1 3 0 3 1v-1h1a2 2 0 0 1 1 1 2 2 0 0 1-1 2v-1 1c-1 2-2 2-3 2v1zm2 4zM32 80zm-1-2zm7-12v-1 1zm0-4zm66 10h-1 4v-1l-3 1zm3-1v1-1zm16-2v1-1zm-1 0a16 16 0 0 1-3 1h3v-1zm-17-4a4 4 0 0 0 0 1v-1zm-3-2v0zm7 8zm16-3v-1a3 3 0 0 0-1 1v-1h-2-3l1 1 1-1v1a19 19 0 0 1-3 0 3 3 0 0 0 1 0v-1a15 15 0 0 1-2 0h2a8 8 0 0 0 3 0h1v-1l-4 1a3 3 0 0 1-1 0h-3a12 12 0 0 1-3 0 1 1 0 0 0 0 1v-1l-1 1h-1a5 5 0 0 1-1 0h-5v-1h1-1 1v-2h1-1a1 1 0 0 1 1-1 10 10 0 0 0 1-3 1 1 0 0 1 0-1 2 2 0 0 0 0-1h1v-1a47 47 0 0 0 3-6l2-8a1 1 0 0 1 0 1 1 1 0 0 0-1 0 3 3 0 0 1 1-2v1a7 7 0 0 1 1-1l-1-1v-1h-2a1 1 0 0 0 0-1h1l-11 1h-1-2a6 6 0 0 1-1 0 1 1 0 0 1-1 0h3a1 1 0 0 1-1 0 15 15 0 0 1-2 1v-1l-5 1a7 7 0 0 0-2 0l-2 1h2v1a2 2 0 0 0-2 1l-1 1v1-1l1 1-6 11-4 12-2 1h1v2h2a8 8 0 0 1 0 2 3 3 0 0 0 1-2v1l-2 4h1l2-5 10-1h1l3-1h2l1-1a1 1 0 0 1 1 0h1l1-1a5 5 0 0 0-1 0 6 6 0 0 1-2 0h-3-2q5 0 4-1h2-9a10 10 0 0 0-2 0 13 13 0 0 0-2 0h-3l3-7a6 6 0 0 1 2-2l1-1 1 1a13 13 0 0 0 3-1 2 2 0 0 1 1 0h1l2-1a17 17 0 0 0 4 0v-1h-1-1v-1h2v-1h1-12a1 1 0 0 0-1 0l3-6a2 2 0 0 1 0 1l2-3 4-1a1 1 0 0 0 1 0l7-1h-1a1 1 0 0 0 1 0 10 10 0 0 1 2-1h1a3 3 0 0 1-1 0v-1h3a1 1 0 0 0 1 0 7 7 0 0 0 0 1h-1l-6 15-1 2a3 3 0 0 1 0 2l-2 5v2l-1-1a6 6 0 0 0-1 2h1a1 1 0 0 0 0-1h1a1 1 0 0 0 0 1l-1 1a2 2 0 0 1 1 0 2 2 0 0 0 1 0h4a21 21 0 0 0 2 0h1v-1 1a6 6 0 0 1 2 0h-1a1 1 0 0 0 1 0 3 3 0 0 0-1 0h-1v1l2-1h4a17 17 0 0 0 2-1h1-3 1l8-1 1-1a10 10 0 0 1-2 0h1a2 2 0 0 0 1 0zm-46 0h-1a8 8 0 0 1 1-2 8 8 0 0 1 0 2zm0-2h0zm6 5h-1 1zm-1 0h-2 2zm6-27v-1h1l-1 1zm7-2v0zm-2 1a7 7 0 0 0 1-1h1v1h-1a1 1 0 0 1-1 0zm1 2h1-1zm1-1h1-1zm0-1v-1h1a7 7 0 0 0-1 1zm1 2h1-1zm3-4h-1a7 7 0 0 1-1 0h2zm-1 3h-1 1zm2 1l-1-1-1 1-1-1h4a5 5 0 0 0-1 0zm9-3h1a4 4 0 0 1 1-1 7 7 0 0 1-2 4v-1a17 17 0 0 0 0-2zm-1 3h-1a1 1 0 0 0 1 0zm-1 2a4 4 0 0 1 0-2v3h-1l1-1zm-1 2a3 3 0 0 1 0 1v-1zm-7 21v0zm11 1h-1v-1h1a1 1 0 0 0 0 1zm-1-1zm0-1h-1 1v-1h2l-2 1zm3-1a3 3 0 0 0-1 0h1zm0 0zm1 0zm1 0zm0 0h1-1zm10-1zm0 0h-1 1zm0 0v1h1l-1-1z"/>
</svg>
