<svg xmlns="http://www.w3.org/2000/svg" viewBox="0 0 128 128">
  <path fill="white" fill-rule="evenodd" d="M99 67l9-5c4-4 3-9-1-13l-2-2c-1-3-2-7 1-10l1-4c2-4 0-7-4-9h-2l-2-2c0-4 1-6 4-8l6-2c-3-4-11-7-17-5-6 1-10 5-13 9h-2c-2 0-1-1-1-2l2-8-8 4c-2-3-1-5-1-8-4 2-8 4-9 9h-1l-1-7c-4 3-6 6-7 11v1l-2-1c-4-4-9-8-15-9s-12 2-15 6l7 3c3 1 3 4 3 6s-1 3-3 3c-4 1-6 4-6 8l2 4c2 3 2 5 2 8l-3 6c-4 3-5 8-1 11l8 6c3 1 4 3 4 6v16c-4-3-6-6-7-10-3 3-5 7-5 12 0 9 3 15 11 18l2 2c3 5 7 9 14 10l2 1c3 2 7 4 12 4 6 1 12 0 18-4l2-1c6-1 11-4 14-10l3-2c3-2 6-5 8-9s2-8 2-12c-1-4-3-7-5-9-1 4-3 7-7 10V72c0-2 1-4 3-5zm3-56l-4 1c-5 0-9 2-12 7l-1 1-2-2c4-7 12-10 19-7zm-6 4l-1 7c0 1 0 2-2 2-1 1-2 0-3-1v-3c1-3 3-5 6-5zm-70-4c7-3 15 0 19 7l-2 2v-1l-5-4c-2-2-5-3-8-3l-4-1zm13 10l-3 3-3-1v-3l-1-3v-2c3 0 7 3 7 6zm-13 80c-3-5-3-10-2-15 4 8 11 10 19 11-3 3-5 6-3 10-6 0-11-2-14-6zm17 16l-6-6c5-1 5 3 7 5l-1 1zm26 5c-13 3-22-3-26-16-1-4 1-6 5-6h34c3 1 4 2 3 6-2 8-7 15-16 16zm15-5l2-5 2-1h3l-7 6zm19-31c4 12-3 21-15 21 2-4 0-7-3-10 8-1 15-3 18-11zM92 73l1 15c0 4 0 4-3 4l-6 1-1-1-6-15-1-1h-1l6 21H47l6-21h-1l-3 7a281 281 0 0 0-6 10l-6-1c-2 0-2-1-2-3l1-15c0-5-2-8-6-10l-6-4c-3-2-3-6 0-8v2c3-4 5-12 3-20v2l-1 1-2-6c-1-2 2-4 4-4 5 0 9 1 14 4l12 7c-1-3-4-6-13-12 9-10 37-10 46 0-5 3-10 7-13 12l5-3c5-3 10-7 17-8l6 1c2 0 3 2 2 4l-2 4-1-2c-2 7-1 14 3 20v-2c2 1 3 4 1 6l-3 4-4 2c-4 2-6 5-6 9zm-3-29c-5 1-9 4-12 7-1 2-3 3-5 3h-3c0 3 2 4 4 4l3 8 1-1v-7c4 3 7 2 11 0s5-5 6-9l1 3c1-3 2-5 0-8l2-1-8 1zm-1 11c-3 2-6 3-10 1 3-4 7-6 11-9 1 2 0 7-1 8zm-38-4c-2-3-6-6-10-7l-9-1 2 1v8l1-3c1 4 2 7 6 9 3 2 6 3 11 0v7h1l3-7c3-1 4-2 4-4-3 1-6 0-9-3zm-9 4c-2-1-3-5-2-8 4 3 8 5 11 9-3 2-7 2-9-1zm29-12c-4 2-8 2-12 0 4 5 8 5 12 0zm9 61l-4-1v1h-4c-2 0-2 1-1 2 0 2 1 3 3 4 0 1 2 2 3 1 3 0 4-2 5-5 1-1 0-2-2-2zm-22 0l-4-1-5 1c-1 0-2 0-2 2l5 5c2 1 4 1 5-1l2-4c1-1 1-2-1-2z" clip-rule="evenodd"/>
</svg>
