<svg xmlns="http://www.w3.org/2000/svg" viewBox="0 0 128 128">
  <path fill="white" d="M65 107l-2-1h-1l-2-1-3-1-2-1h-1l-2-1-2-1h-1l-1-1-1-1-2-1h-1l-2-2-2-1v-1l-2-1-2-2-2-1v-1l-2-1v-1l-2-1-2-2v-1l-1-1-1-1-1-2a56 56 0 0 1-7-58l-8 11C-1 48 0 69 8 86l1 1 1 1v1l1 1v1l1 1 1 1 1 2 2 2 1 2h1l1 2 2 2 2 2 2 2 2 1 1 1 1 1 1 1 1 1h1l1 1 1 1 2 1h1l2 1v1h2v1l2 1h1l2 1h1l2 1 2 1h1l2 1c54 9 69-33 69-33-13 17-36 22-58 17zM46 64l4 5 2 2 2 2 2 2h1l2 2h1l1 1 1 1h1l1 1h1l1 1 2 1h2l1 1h2v1h3c41 7 50-25 50-25-8 13-25 19-43 14l-2-1h-1-1l-1-1h-2v-1l-2-1h-1l-1-1h-2l-1-2h-1a66 66 0 0 1-3-2l-1-1c-7-6-14-14-17-24-3-9-2-20 3-29l-6 9c-8 11-8 27-1 39l3 6zm43-15l1 1h2c23 5 29-11 31-14-5 8-15 10-26 7a28 28 0 0 1-6-2l-5-3C76 30 70 16 76 4l-3 5c-5 7-6 15-2 23 3 8 10 14 18 17z"/>
</svg>
