<?xml version="1.0" encoding="utf-8"?>
<!-- Generator: Adobe Illustrator 16.0.0, SVG Export Plug-In . SVG Version: 6.00 Build 0)  -->
<!DOCTYPE svg PUBLIC "-//W3C//DTD SVG 1.1//EN" "http://www.w3.org/Graphics/SVG/1.1/DTD/svg11.dtd">
<svg version="1.1" id="Layer_1" xmlns="http://www.w3.org/2000/svg" xmlns:xlink="http://www.w3.org/1999/xlink" x="0px" y="0px"
	 width="612px" height="792px" viewBox="0 0 612 792" enable-background="new 0 0 612 792" xml:space="preserve">
<path fill="#FFFFFF" d="M559.157,557.64c-32.813-0.894-57.872,2.161-79.297,11.193c-6.087,2.567-15.803,2.639-16.797,10.265
	c3.347,3.505,3.868,8.745,6.526,13.058c5.116,8.271,13.751,19.374,21.458,25.188c8.425,6.359,17.103,13.153,26.13,18.657
	c16.056,9.787,33.98,15.381,49.438,25.188c9.112,5.785,18.164,13.067,27.052,19.589c4.398,3.228,7.349,8.242,13.063,10.265v-0.927
	c-3.003-3.825-3.777-9.075-6.531-13.067l-12.13-12.13c-11.857-15.74-26.914-29.567-42.917-41.048
	c-12.761-9.16-41.319-21.534-46.641-36.38l-0.933-0.933c9.047-1.023,19.637-4.294,27.989-6.536
	c14.028-3.758,26.565-2.787,41.048-6.526l19.589-5.599v-3.729c-7.32-7.511-12.542-17.456-20.521-24.255
	c-20.895-17.786-43.691-35.559-67.167-50.38c-13.024-8.215-29.113-13.556-42.917-20.521c-4.643-2.348-12.799-3.566-15.863-7.469
	c-7.254-9.237-11.198-20.951-16.787-31.714c-11.71-22.553-23.209-47.181-33.584-70.911c-7.076-16.18-11.699-32.13-20.525-46.646
	c-42.362-69.649-87.956-111.681-158.59-153c-15.032-8.788-33.129-12.254-52.254-16.797c-10.256-0.617-20.521-1.243-30.781-1.869
	c-6.269-2.611-12.78-10.275-18.657-13.995c-23.399-14.784-83.423-46.938-100.75-4.662c-10.944,26.684,16.356,52.713,26.115,66.24
	c6.856,9.476,15.63,20.115,20.525,30.782c3.223,7.014,3.777,14.047,6.536,21.463c6.775,18.274,12.68,38.154,21.454,55.037
	c4.432,8.549,9.318,17.547,14.927,25.188c3.433,4.69,9.328,6.756,10.256,13.995c-5.757,8.061-6.087,20.579-9.323,30.791
	c-14.583,45.972-9.08,103.118,12.13,137.141c6.502,10.451,21.836,32.852,42.911,24.255c18.437-7.507,14.32-30.781,19.594-51.313
	c1.19-4.652,0.459-8.075,2.797-11.192v0.932l16.797,33.584c12.432,20.019,34.482,40.937,53.177,55.051
	c9.691,7.32,17.322,19.972,29.854,24.256v-0.938h-0.933c-2.429-3.781-6.229-5.35-9.328-8.391
	c-7.301-7.158-15.42-16.056-21.453-24.256c-17.002-23.079-32.025-48.338-45.714-74.63c-6.541-12.561-12.226-26.407-17.733-39.188
	c-2.123-4.925-2.095-12.378-6.521-14.927c-6.039,9.361-14.928,16.935-19.594,27.989c-7.464,17.672-8.425,39.226-11.193,61.573
	c-1.635,0.583-0.908,0.182-1.869,0.927c-12.995-3.131-17.557-16.505-22.391-27.984c-12.211-29.022-14.482-75.745-3.734-109.151
	c2.783-8.649,15.348-35.864,10.261-43.854c-2.429-7.965-10.442-12.574-14.922-18.661c-5.552-7.525-11.088-17.432-14.937-26.125
	c-9.993-22.62-14.66-48.023-25.184-70.896c-5.034-10.935-13.54-22.003-20.525-31.719c-7.731-10.772-16.396-18.704-22.391-31.724
	c-2.133-4.628-5.025-12.039-1.87-16.796c1.005-3.208,2.43-4.547,5.6-5.594c5.412-4.174,20.482,1.387,26.115,3.725
	c14.96,6.216,27.449,12.135,40.124,20.531c6.077,4.035,12.235,11.833,19.589,13.995h8.396c13.134,3.017,27.846,0.932,40.119,4.662
	c21.688,6.589,41.124,16.845,58.771,27.99c53.771,33.957,97.738,82.285,127.813,139.942c4.838,9.285,6.933,18.14,11.192,27.989
	c8.597,19.856,19.427,40.287,27.98,59.708c8.539,19.373,16.858,38.924,28.927,55.046c6.344,8.473,30.844,13.02,41.983,17.729
	c7.804,3.294,20.593,6.736,27.989,11.188c14.119,8.521,27.804,18.662,41.053,27.995C537.79,538.974,558.144,549.21,559.157,557.64
	L559.157,557.64z M142.142,202.197c-6.842-0.129-11.681,0.746-16.797,1.86v0.933h0.933c3.266,6.703,9.027,11.025,13.058,16.796
	c3.107,6.536,6.221,13.063,9.333,19.589l0.928-0.923c5.78-4.079,8.425-10.586,8.391-20.531c-2.313-2.434-2.653-5.484-4.661-8.391
	C150.666,207.652,145.508,205.448,142.142,202.197z"/>
</svg>
