<?xml version="1.0" encoding="utf-8"?>
<!-- Generator: Adobe Illustrator 16.0.0, SVG Export Plug-In . SVG Version: 6.00 Build 0)  -->
<!DOCTYPE svg PUBLIC "-//W3C//DTD SVG 1.1//EN" "http://www.w3.org/Graphics/SVG/1.1/DTD/svg11.dtd">
<svg version="1.1" id="Layer_1" xmlns="http://www.w3.org/2000/svg" xmlns:xlink="http://www.w3.org/1999/xlink" x="0px" y="0px"
	 width="592.87px" height="307.911px" viewBox="9.563 242.04 592.87 307.911" enable-background="new 9.563 242.04 592.87 307.911"
	 xml:space="preserve">
<path fill="#00618A" d="M9.568,522.502h19.641v-77.565l30.409,67.621c3.586,8.186,8.496,11.078,18.131,11.078
	c9.634,0,14.357-2.893,17.943-11.078l30.409-67.621v77.565h19.642v-77.437c0-7.555-3.022-11.212-9.257-13.096
	c-14.922-4.657-24.935-0.627-29.467,9.447l-29.84,66.736l-28.894-66.741c-4.346-10.069-14.544-14.1-29.467-9.447
	c-6.234,1.889-9.256,5.541-9.256,13.096v77.441H9.568z M162.079,459.361h19.637v42.734c-0.182,2.319,0.746,7.77,11.504,7.942
	c5.488,0.086,42.371,0,42.716,0V459.15h19.685c0.091,0-0.02,69.396-0.02,69.683c0.105,17.116-21.233,20.832-31.073,21.118h-62.022
	v-13.215c0.105,0,61.979,0.014,62.132-0.005c12.646-1.334,11.15-7.616,11.146-9.729v-5.154h-41.745
	c-19.421-0.178-31.795-8.654-31.953-18.408C162.074,502.545,162.51,459.791,162.079,459.361L162.079,459.361z"/>
<path fill="#E48E00" d="M270.762,522.502h56.477c6.612,0,13.038-1.382,18.135-3.772c8.496-3.901,12.651-9.189,12.651-16.122v-14.354
	c0-5.665-4.72-10.958-13.976-14.478c-4.91-1.894-10.959-2.893-16.815-2.893h-23.802c-7.932,0-11.709-2.391-12.65-7.679
	c-0.187-0.631-0.187-1.133-0.187-1.764V452.5c0-0.502,0-1.009,0.187-1.635c0.941-4.031,3.021-5.164,10.012-5.795l1.889-0.125h56.098
	v-13.091h-55.151c-7.932,0-12.087,0.502-15.864,1.635c-11.709,3.653-16.815,9.443-16.815,19.518v11.456
	c0,8.816,10.017,16.371,26.823,18.135c1.893,0.12,3.776,0.254,5.665,0.254h20.401c0.756,0,1.512,0,2.08,0.119
	c6.235,0.502,8.874,1.641,10.768,3.901c1.133,1.134,1.506,2.271,1.506,3.524v11.46c0,1.382-0.941,3.146-2.83,4.657
	c-1.697,1.511-4.533,2.52-8.31,2.773l-2.08,0.124h-54.21V522.502L270.762,522.502z M480.568,499.715
	c0,13.469,10.013,21.023,30.218,22.539c1.889,0.124,3.777,0.248,5.666,0.248h51.188v-13.091h-51.561
	c-11.522,0-15.864-2.897-15.864-9.825v-67.741h-19.642v67.87H480.568z M370.561,500.394v-46.688
	c0-11.857,8.329-19.054,24.796-21.324c1.702-0.254,3.601-0.378,5.298-0.378h37.288c1.894,0,3.596,0.124,5.484,0.378
	c16.467,2.271,24.801,9.462,24.801,21.324v46.688c0,9.63-3.538,14.774-11.69,18.131l19.354,17.466H453.08l-15.653-14.134l-15.759,1
	h-21.014c-3.596,0-7.378-0.502-11.542-1.641C376.618,517.812,370.561,511.247,370.561,500.394L370.561,500.394z M391.761,499.261
	c0,0.631,0.187,1.267,0.378,2.022c1.133,5.427,6.249,8.453,14.004,8.453h17.844l-16.39-14.798h22.811l14.292,12.909
	c2.639-1.41,4.37-3.553,4.977-6.312c0.187-0.631,0.187-1.262,0.187-1.893v-44.791c0-0.502,0-1.138-0.187-1.77
	c-1.138-5.049-6.249-7.946-13.817-7.946h-29.721c-8.701,0-14.382,3.787-14.382,9.716v44.408H391.761z"/>
<path fill="#00618A" d="M584.919,410.114c-12.073-0.33-21.296,0.794-29.186,4.116c-2.242,0.947-5.813,0.971-6.177,3.777
	c1.229,1.296,1.42,3.223,2.4,4.811c1.883,3.045,5.063,7.129,7.898,9.266c3.093,2.338,6.287,4.844,9.615,6.871
	c5.904,3.604,12.503,5.661,18.197,9.266c3.352,2.133,6.679,4.811,9.954,7.215c1.621,1.182,2.701,3.031,4.811,3.772v-0.339
	c-1.104-1.406-1.392-3.338-2.405-4.811l-4.466-4.466c-4.365-5.795-9.902-10.877-15.797-15.104
	c-4.695-3.371-15.205-7.928-17.165-13.393l-0.344-0.339c3.327-0.378,7.229-1.583,10.299-2.405c5.163-1.387,9.777-1.028,15.108-2.405
	l7.21-2.065v-1.367c-2.691-2.764-4.619-6.427-7.555-8.927c-7.684-6.545-16.079-13.086-24.719-18.546
	c-4.791-3.022-10.715-4.987-15.797-7.55c-1.702-0.865-4.705-1.31-5.838-2.749c-2.673-3.399-4.122-7.708-6.183-11.671
	c-4.303-8.295-8.539-17.361-12.359-26.096c-2.601-5.953-4.303-11.824-7.55-17.165c-15.592-25.632-32.374-41.104-58.369-56.309
	c-5.532-3.237-12.192-4.509-19.226-6.177l-11.332-0.688c-2.3-0.961-4.699-3.782-6.865-5.149
	c-8.616-5.441-30.705-17.275-37.084-1.711c-4.025,9.82,6.024,19.402,9.615,24.379c2.521,3.49,5.752,7.401,7.555,11.327
	c1.186,2.582,1.387,5.168,2.405,7.898c2.49,6.723,4.666,14.043,7.894,20.253c1.631,3.146,3.433,6.459,5.493,9.271
	c1.263,1.721,3.434,2.486,3.772,5.149c-2.118,2.964-2.242,7.574-3.433,11.327c-5.364,16.921-3.342,37.954,4.466,50.476
	c2.396,3.849,8.037,12.091,15.792,8.927c6.785-2.764,5.274-11.327,7.216-18.886c0.439-1.707,0.167-2.969,1.027-4.117v0.344
	l6.183,12.359c4.575,7.368,12.689,15.061,19.569,20.258c3.566,2.691,6.378,7.354,10.987,8.927v-0.349h-0.34
	c-0.898-1.393-2.29-1.966-3.438-3.09c-2.687-2.634-5.675-5.904-7.894-8.926c-6.259-8.492-11.786-17.792-16.825-27.469
	c-2.405-4.619-4.494-9.715-6.521-14.42c-0.784-1.813-0.774-4.557-2.4-5.489c-2.229,3.443-5.494,6.23-7.215,10.299
	c-2.744,6.503-3.099,14.435-4.117,22.659l-0.688,0.339c-4.786-1.152-6.464-6.077-8.242-10.299
	c-4.495-10.677-5.331-27.875-1.372-40.167c1.022-3.184,5.646-13.201,3.771-16.141c-0.894-2.931-3.844-4.624-5.488-6.871
	c-2.042-2.768-4.083-6.412-5.494-9.615c-3.682-8.324-5.397-17.671-9.266-26.091c-1.855-4.026-4.982-8.095-7.555-11.671
	c-2.845-3.969-6.034-6.885-8.243-11.676c-0.783-1.702-1.85-4.433-0.688-6.183c0.368-1.181,0.899-1.673,2.066-2.061
	c1.988-1.535,7.535,0.512,9.609,1.372c5.509,2.291,10.104,4.466,14.77,7.555c2.238,1.487,4.499,4.355,7.21,5.149h3.089
	c4.834,1.109,10.251,0.339,14.765,1.711c7.984,2.429,15.138,6.202,21.631,10.304c19.789,12.498,35.964,30.285,47.037,51.503
	c1.779,3.419,2.554,6.675,4.117,10.299c3.165,7.306,7.152,14.827,10.299,21.975c3.142,7.129,6.206,14.325,10.647,20.258
	c2.334,3.118,11.351,4.791,15.448,6.521c2.874,1.215,7.578,2.482,10.299,4.117c5.197,3.137,10.237,6.87,15.109,10.304
	C577.054,403.248,584.546,407.012,584.919,410.114L584.919,410.114z M431.446,279.304c-2.515-0.048-4.299,0.277-6.183,0.688v0.339
	h0.345c1.2,2.472,3.318,4.059,4.805,6.182l3.438,7.21l0.339-0.339c2.128-1.497,3.099-3.892,3.089-7.554
	c-0.855-0.899-0.98-2.022-1.717-3.089C434.586,281.308,432.684,280.504,431.446,279.304z"/>
</svg>
