<svg xmlns="http://www.w3.org/2000/svg" viewBox="0 0 128 128">
  <path fill="white" fill-rule="evenodd" d="M126 1H2 1v126h126V1h-1zm-13 114H16c-2 0-2 0-2-2V15l2-1h97l2 1v98c0 1 0 2-2 2zM57 40c-7-2-14-1-20 0-2 0-2 0-2 2v46h9V70c5 1 10 0 14-1 7-3 11-8 10-16 0-7-4-12-11-13zm-2 22c-3 2-7 2-10 1l-1-1V46h9c4 1 6 3 6 7 1 4-1 7-4 9zm33 7l-4-2-5-2-1-3c0-2 1-3 4-3h5l4 1 1-6-10-2c-3 0-6 1-8 3-5 3-7 12 0 16l6 3 3 2c2 1 2 2 2 4l-3 3h-5l-7-2-1 5v2c6 2 12 2 18 0 4-1 6-4 7-9 0-4-2-8-6-10z" clip-rule="evenodd"/>
</svg>
