<svg xmlns="http://www.w3.org/2000/svg" viewBox="0 0 30.6 31.5">
  <path fill="none" d="M0 3.7h30.6v27.8H0z"/>
  <path class="letter" fill="#ffbf00" d="M11.9 26.8l.2 1.5v.2c-.3 0-.5-.2-.6-.7l-.3-1.5c0-1.8 1.2-5 3.6-9.8l-3 .5c-2.8.6-4.9 1-6 1-1.3 0-1.9-.7-1.9-1.9L4 16c.8.2 2.1.3 3.8.3 1.7 0 4.2-.2 7.4-.5l2.1-4.4c.9-1.9 1.3-3.4 1.3-4.7 0-1.8-1-2.7-3-2.7-1.8 0-4.1.6-7 2a24.9 24.9 0 0 0-7 4.6c-.3 0-.5-.4-.5-1.2C1 8.5 2 7.6 4 6.6a29.7 29.7 0 0 1 11.8-3.3c3 0 4.5 1.3 4.5 4 0 1.3-.2 2.3-.5 3.1a49 49 0 0 1-3 5.2l2.5-.4.4.1-.1.2-.5.2a38.2 38.2 0 0 1-2.7.5c-3 4.9-4.5 8.4-4.5 10.6z"/>
</svg>
