<svg xmlns="http://www.w3.org/2000/svg" width="111.3" height="27.5">
  <path fill="none" d="M0 3.7h127.8v27.1H0z"/>
  <path fill="white" d="M9 21v1.3c-.1 0-.3-.2-.4-.6l-.2-1.1c0-1.4 1-3.8 2.7-7.4a40.2 40.2 0 0 1-6.8 1.1c-1 0-1.4-.4-1.4-1.3l.1-.1 2.9.2c1.3 0 3-.1 5.5-.4L13 9.4C13.6 8 14 7 14 6c0-1.4-.8-2-2.4-2-1.3 0-3 .5-5.1 1.5a18.7 18.7 0 0 0-5.3 3.4C1 8.8.8 8.5.8 8c0-.7.7-1.4 2.2-2.2a22.6 22.6 0 0 1 8.8-2.5c2.3 0 3.4 1 3.4 3.1 0 1 0 1.7-.3 2.3-.3.6-1 1.9-2.3 3.9l2-.4c.1 0 .2 0 .2.2l-.1.1-.3.1-.5.1-1.6.3C10 16.7 9 19.3 9 21zM16.7 14.9c-.6 1.6-.9 2.7-.9 3.3s.2 1 .4 1 .4-.1.7-.4a8 8 0 0 0 .7-.6c.1 0 .2 0 .2.2s-.3.5-.9.8l-1.2.5c-.8 0-1.2-.5-1.2-1.6a17.6 17.6 0 0 1 2.2-7.5l.6-.2c.7 0 1 .2 1.2.4-.7 1.1-1.3 2.4-1.8 4zm3.3-9v1c-.4 1.3-.8 1.9-1.5 1.9-.4 0-.8-.1-1-.4C18.2 8 19 7.1 20 6zM21.1 19h.7c0 .4-.4.5-1 .5-1 0-1.5-.8-1.5-2.4a38.2 38.2 0 0 1 3.4-11.6c1-2 1.8-3 2.6-3 .5 0 .9.2 1.3.5.5.3.7.6.7 1 0 1.4-2.1 4.6-6.4 9.5-.3 1.5-.5 2.8-.5 4s.3 1.6.8 1.6zm5.5-15.2c0-.2 0-.3-.2-.3-.6 0-1.5 1-2.6 3.2-1.2 2.1-2 4.1-2.7 6C24.8 8 26.6 5 26.6 3.9zM26 14.9c-.6 1.6-.9 2.7-.9 3.3s.1 1 .4 1c.2 0 .4-.1.7-.4a8 8 0 0 0 .7-.6l.1.2c0 .2-.3.5-.8.8l-1.3.5c-.7 0-1.1-.5-1.1-1.6a17.6 17.6 0 0 1 2.2-7.5l.6-.2c.7 0 1 .2 1.1.4-.6 1.1-1.2 2.4-1.8 4zm3.3-9v.2l-.1.8c-.3 1.3-.8 1.9-1.4 1.9-.5 0-.8-.1-1-.4.7-.5 1.5-1.3 2.5-2.5zM31.3 10.1l-1 .3c-.1 0-.2-.1-.2-.3 0-.3.5-.4 1.3-.4 1.4 0 2.1.4 2.1 1.4 0 .3-.3 1-.9 2.4 1.6-2.1 3-3.2 4.1-3.2 1 0 1.5.5 1.5 1.6 0 1.5-.7 3.1-2.2 4.8-1.4 1.7-2.8 2.6-4.1 2.6-.7 0-1.3-.2-1.8-.5-1.2 2.9-1.9 5-1.9 6.5 0 .5.2.7.6.7l.9-.3c0 .2 0 .4-.4.5l-.8.2c-.3 0-.5-.2-.8-.6-.3-.3-.5-.7-.5-1 0-1.8.6-4 1.9-7l-.3-.8v-.2h.1c0 .3.2.5.3.6C31 13.2 32 11 32 10.6c0-.3-.2-.5-.6-.5zm5.5 1.7c0-.5-.2-.8-.5-.8-.7 0-1.6.7-2.7 2a23.2 23.2 0 0 0-3.3 5.4l1.2.1c1.1 0 2.3-.7 3.5-2.3 1.2-1.6 1.8-3 1.8-4.4zM45.6 14.6c.1 0 .2 0 .2.2v.2c-2.2 3-3.9 4.6-5.3 4.6-1.7 0-2.5-.8-2.5-2.4 0-1.2.6-2.7 1.8-4.4 1.2-1.8 2.4-2.6 3.5-2.6.5 0 1 .1 1.3.4.4.4.5.7.5 1.2 0 .7-.4 1.5-1.4 2.2-.9.8-1.8 1.1-2.7 1.1h-.3l.1-.2c2.3-.8 3.5-2 3.5-3.6 0-.2-.1-.3-.3-.3l-1.2.6c-1 .8-1.8 1.8-2.5 3s-1 2.3-1 3 .2 1.3.8 1.3c.7 0 1.5-.4 2.4-1.1a41.3 41.3 0 0 0 3.1-3.2zM64 7.9a5 5 0 0 1-.7 2l.1 1c0 2-1 3.9-3.2 5.8a16.6 16.6 0 0 1-4.7 3c-1.5.6-3.2 1-5.1 1-1.4 0-2.4-.5-3.3-1.4-.9-.9-1.3-2-1.3-3.3 0-1.8.7-3.6 2-5.3a15.6 15.6 0 0 1 11.5-5.9 6 6 0 0 1 3.4.8c.8.6 1.2 1.3 1.2 2.3zm-.8.2c0-.9-.3-1.5-1-2-.8-.6-1.7-.8-2.9-.8-1.8 0-3.6.5-5.5 1.4-1.8 1-3.3 2.3-4.5 4a8.4 8.4 0 0 0-1.9 5 4 4 0 0 0 1.2 3c.8.8 1.8 1.1 3.2 1.1s2.7-.3 4.3-1c1.5-.7 2.8-1.7 4-3a7.4 7.4 0 0 0 2-4.2 14.5 14.5 0 0 1-4.3 3l.9-.6c1.5-1.3 2.6-2.4 3.4-3.3-.1-.8-.5-1.5-1.1-2.1-.6-.6-1.4-1-2.3-1.3L57 7.1 55.4 7h.1a6.8 6.8 0 0 1 5.3.4c1 .4 1.8 1 2.2 1.8l.2-1zM65.3 19h.6c0 .4-.3.5-1 .5-1 0-1.5-.8-1.5-2.4a38.2 38.2 0 0 1 3.4-11.6c1-2 1.9-3 2.7-3 .4 0 .9.2 1.3.5s.7.6.7 1c0 1.4-2.2 4.6-6.4 9.5-.3 1.5-.5 2.8-.5 4s.2 1.6.7 1.6zm5.4-15.2c0-.2 0-.3-.2-.3-.6 0-1.4 1-2.6 3.2-1.1 2.1-2 4.1-2.6 6C69 8 70.7 5 70.7 3.9zM70.1 14.9c-.6 1.6-.8 2.7-.8 3.3s.1 1 .4 1c.1 0 .4-.1.6-.4a8 8 0 0 0 .8-.6v.2c0 .2-.2.5-.8.8l-1.2.5c-.8 0-1.2-.5-1.2-1.6a17.6 17.6 0 0 1 2.3-7.5l.5-.2c.7 0 1.1.2 1.2.4-.6 1.1-1.2 2.4-1.8 4zm3.3-9l.1.2-.2.8c-.3 1.3-.7 1.9-1.3 1.9-.5 0-.9-.1-1.1-.4A13 13 0 0 0 73.4 6zM82 9.4v.3a19 19 0 0 0-7 8.5c-.3 1-.6 1.4-.8 1.4-.6 0-1-.1-1-.4.4-3.2.5-5.1.5-5.7 0-1.7-.2-2.5-.7-2.5l-.2.3c-.1.2-.2.2-.3.2-.1 0-.2-.1-.2-.4 0-.4.3-.6 1-.6 1.2 0 1.8 1 1.8 3.3l-.2 2h.2l.2-.2A43 43 0 0 1 79 11c1.2-1.2 2-1.8 2.6-1.8.2 0 .3.1.3.3zM86.1 14.6c.1 0 .2 0 .2.2v.2c-2.2 3-4 4.6-5.3 4.6-1.7 0-2.6-.8-2.6-2.4 0-1.2.7-2.7 1.9-4.4 1.2-1.8 2.3-2.6 3.5-2.6.5 0 .9.1 1.3.4.3.4.5.7.5 1.2 0 .7-.5 1.5-1.4 2.2-1 .8-1.8 1.1-2.7 1.1h-.3l.1-.2c2.3-.8 3.4-2 3.4-3.6 0-.2 0-.3-.2-.3l-1.2.6c-1 .8-1.8 1.8-2.5 3-.8 1.2-1.1 2.3-1.1 3s.3 1.3 1 1.3c.6 0 1.4-.4 2.3-1.1a41.3 41.3 0 0 0 3.1-3.2zM88.2 14.9c-.6 1.6-.8 2.7-.8 3.3s0 1 .3 1c.2 0 .5-.1.7-.4a8 8 0 0 0 .8-.6v.2c0 .2-.2.5-.8.8l-1.2.5c-.8 0-1.2-.5-1.2-1.6a17.6 17.6 0 0 1 2.3-7.5l.5-.2c.7 0 1.1.2 1.2.4-.7 1.1-1.2 2.4-1.8 4zm3.3-9v1c-.4 1.3-.8 1.9-1.4 1.9-.5 0-.9-.1-1.1-.4A13 13 0 0 0 91.5 6zM99.4 10.2s-.2 0-.4.3c-.7 1.1-1.1 1.9-1.2 2.4 0 .5.2.8.6 1h.2c0 .2-.2.3-.6.3-.4 0-.7-.2-1-.5s-.4-.6-.4-1l.1-1a15 15 0 0 0-2.4 2.4 9 9 0 0 0-1.9 3.7l-.3 1.2c0 .2-.2.3-.4.3l-.6-.1c-.2-.1-.3-.2-.3-.4 0-.3.3-1.5 1-3.6s1-3.6 1-4.7c0-.3-.2-.5-.5-.5l-.4-.2c0-.2.2-.3.5-.3 1.3 0 2 .6 2 1.7l-1 3.5c1-1.7 2.3-3 3.6-3.6.3-.7.8-1 1.4-1s1 0 1 .1zM105.6 19.2h.3c0 .2-.2.3-.7.3s-.9-.2-1.2-.7c-.3-.4-.5-1-.5-1.8s.2-1.6.4-2.5l-.8 1.2c-1.6 2.5-2.9 3.8-3.8 3.8-.4 0-.8-.2-1.1-.5a2 2 0 0 1-.5-1.5c0-.6.3-1.5 1-2.7.7-1.2 1.6-2.3 2.6-3.2 1-1 1.9-1.4 2.6-1.4h.3c.7 0 1.4.1 1.9.4.5.3.8.7.8 1.2 0 .2-.1.3-.3.3h-.1c-.3-.8-.8-1.2-1.5-1.2-1 0-2.4 1-3.9 2.8C99.7 15.6 99 17 99 18c0 .4.1.5.3.5 1 0 2.8-2 5.7-6l.2-.1c.1 0 .3 0 .6.3.3.2.5.3.5.5l-.4.8c-.7 1.4-1 2.6-1 3.6 0 1.1.2 1.6.8 1.6z"/>
</svg>
